<svg width="1000" height="2000" viewBox="0 0 1000 2000" fill="none" xmlns="http://www.w3.org/2000/svg">
<rect width="1000" height="2000" fill="#1E1E1E"/>
<g clip-path="url(#clip0_0_1)">
<rect width="1000" height="2000" fill="white"/>
<path d="M422 -178C484 -138 578 198 500 386C422 574 192 538 126 682C104.667 748 126 846 222 882C305.64 913.365 386 790 310 726C234 662 48 870 204 1112C265.752 1193.21 358.991 1230.41 448 1254.02C569.434 1286.23 832 1298 868 1508C892.667 1609.33 839.794 1747.76 770 1816C680 1904 574 1780 472 1866C472 1866 428 1866 428 1908C428 1940 452 1956 472 1956C492 1956 516 1934 516 1908C516 1890.86 496.174 1872.01 487.5 1866" stroke="#CD3C2F" stroke-width="40" stroke-linecap="round"/>
</g>
<defs>
<clipPath id="clip0_0_1">
<rect width="1000" height="2000" fill="white"/>
</clipPath>
</defs>
</svg>
