<svg width="1000" height="4000" viewBox="0 0 1000 4000" fill="none" xmlns="http://www.w3.org/2000/svg">
<rect width="1000" height="4000" fill="#1E1E1E"/>
<g clip-path="url(#clip0_0_1)">
<rect width="1000" height="4000" fill="white"/>
<path d="M422 -178C484 -138 578 198 500 386C422 574 192 538 126 682C104.667 748 126 846 222 882C305.64 913.365 386 790 310 726C234 662 48 870 204 1112C265.752 1193.21 358.991 1230.41 448 1254.02C569.434 1286.23 832 1298 868 1508C892.667 1609.33 815.294 3753.76 745.5 3822C655.5 3910 549.5 3786 447.5 3872C447.5 3872 403.5 3872 403.5 3914C403.5 3946 427.5 3962 447.5 3962C467.5 3962 491.5 3940 491.5 3914C491.5 3896.86 471.674 3878.01 463 3872" stroke="#CD3C2F" stroke-width="40" stroke-linecap="round"/>
</g>
<defs>
<clipPath id="clip0_0_1">
<rect width="1000" height="4000" fill="white"/>
</clipPath>
</defs>
</svg>
